<svg xmlns="http://www.w3.org/2000/svg" width="256" height="256" viewBox="0 0 256 256">
  <path d="M128 18c-43.6 0-79 34.9-79 78 0 52.4 71.7 130.6 75.0 134.3a5 5 0 0 0 7 0C135.3 226.6 207 148.4 207 96c0-43.1-35.4-78-79-78z" fill="black"/>
  <circle cx="128" cy="96" r="56" fill="white"/>
  <path d="M160 88c0-15-12-28-35-28-18 0-33 8-41 20l16 10c5-7 13-12 25-12 9 0 18 4 18 11 0 6-6 9-20 11-23 4-39 10-39 29 0 16 15 28 36 28 17 0 30-6 39-17l-15-11c-6 6-14 10-24 10-10 0-18-4-18-10 0-7 7-9 21-12 21-4 37-9 37-27z" fill="black"/>
</svg>