<svg xmlns="http://www.w3.org/2000/svg" width="48" height="48" viewBox="0 0 48 48">
  <path d="M24 3C15 3 8 10.3 8 19.2 8 27.7 21.6 41.2 23 42.7a1 1 0 0 0 1.4 0C25.8 41.2 40 27.7 40 19.2 40 10.3 33 3 24 3z" fill="#1E3A8A"/>
  <circle cx="24" cy="19" r="11" fill="white"/>
  <path d="M31 18c0-3.1-2.7-5.6-7.4-5.6-3.9 0-7 1.6-8.6 4l3.2 2c1-1.4 2.7-2.4 5.2-2.4 1.9 0 3.7.8 3.7 2.2 0 1.3-1.3 1.9-4 2.4-4.6.8-7.8 2-7.8 5.7 0 3.1 3 5.6 7.2 5.6 3.5 0 6-1.1 7.8-3.4l-3-2.2c-1.2 1.2-2.9 2-4.8 2-2 0-3.6-.8-3.6-2 0-1.4 1.4-1.9 4.3-2.4C28.8 22.2 31 21.2 31 18z" fill="white"/>
</svg>